<svg width="439" height="419" viewBox="0 0 439 419" fill="none" xmlns="http://www.w3.org/2000/svg">
<path d="M86.6018 130.491C86.6018 130.491 135.593 102.904 191.785 123.857C247.976 144.81 283.834 199.367 314.012 242.831C344.191 286.295 339.609 336.521 304.236 365.126C268.863 393.731 236.823 365.982 181.737 373.797C126.65 381.612 113.244 392.02 62.476 368.661C11.7079 345.303 -8.98352 273.071 17.6756 212.463C44.3348 151.855 86.6018 130.491 86.6018 130.491Z" fill="#F6F6F7"/>
<path opacity="0.6" d="M310.768 192.154C315.717 189.409 317.968 191.693 319.771 189.409C321.574 187.125 314.822 181.193 328.32 175.256C328.32 175.256 329.221 162.466 347.669 162.011C366.117 161.557 361.173 174.795 366.123 177.994C371.072 181.193 372.421 176.165 377.37 179.364C382.32 182.563 380.075 188.931 384.122 189.869C388.17 190.808 393.55 185.756 398.522 188.955C403.495 192.154 403.472 194.892 405.722 194.892C407.973 194.892 412.474 193.062 415.149 194.892C417.824 196.722 421 199 421 199H307.168C307.168 199 305.819 194.892 310.768 192.154Z" fill="#E7E4E4"/>
<path opacity="0.6" d="M54.8298 238.336C61.1649 234.852 64.0433 237.753 66.3948 234.852C68.7464 231.951 60.0598 224.401 77.343 216.851C77.343 216.851 78.4867 200.598 102.105 200.015C125.723 199.432 119.298 216.281 125.723 220.334C132.148 224.388 133.793 218.016 140.128 222.083C146.463 226.149 143.585 234.269 148.763 235.435C153.942 236.601 160.855 230.255 167.19 234.269C173.525 238.284 173.525 241.82 176.417 241.82C179.308 241.82 185.052 239.502 188.508 241.82C191.965 244.138 196 247 196 247H50.2167C50.2167 247 48.4819 241.82 54.8298 238.336Z" fill="#E7E4E4"/>
<path opacity="0.6" d="M23.357 103.631C26.4437 101.941 27.8496 103.354 28.9701 101.941C30.0905 100.528 25.8834 96.8631 34.2554 93.1873C34.2554 93.1873 34.8156 85.2831 46.3271 85.0068C57.8385 84.7306 54.7836 92.911 57.8385 94.8871C60.8934 96.8631 61.7708 93.7609 64.868 95.7264C67.9652 97.6918 66.5487 101.655 69.0962 102.228C71.6438 102.802 74.9947 99.6785 78.0813 101.655C81.1679 103.631 81.1679 105.33 82.5738 105.33C83.9797 105.33 86.8021 104.194 88.4722 105.33C90.1424 106.467 92.1191 107.87 92.1191 107.87H21.1055C21.1055 107.87 20.2598 105.362 23.357 103.631Z" fill="#E7E4E4"/>
<path d="M221.738 231.592C221.738 231.592 235.585 238.317 241.124 246.465C246.663 254.614 245.046 269.657 236.515 274.523C227.985 279.389 198.207 297.258 177.203 294.708C156.199 292.159 159.434 270.581 170.047 261.997C180.66 253.413 194.973 245.764 194.973 245.764C194.973 245.764 195.66 241.132 196.59 239.506C197.52 237.881 208.123 227.416 221.738 231.592Z" fill="#222121" stroke="#222121" stroke-linecap="round" stroke-linejoin="round"/>
<path d="M165.523 267.076C196.96 257.408 217.668 274.714 224.158 281.344C211.156 288.132 192.002 296.472 177.203 294.677C159.635 292.541 159.032 277.083 165.523 267.076Z" fill="white" stroke="#222121" stroke-linecap="round" stroke-linejoin="round"/>
<path d="M186.897 264.526C186.897 264.526 168.43 279.399 174.899 294.209" stroke="#222121" stroke-linecap="round" stroke-linejoin="round"/>
<path d="M247.509 225.111L254.908 259.798H248.957L234.285 232.463C234.285 232.463 237.149 223.698 247.509 225.111Z" fill="white" stroke="#222121" stroke-linecap="round" stroke-linejoin="round"/>
<path d="M154.508 208.283C160.565 200.846 168.567 193.951 183.229 192.772C183.229 192.772 195.723 192.379 212.721 199.646C226.008 205.319 240.204 217.706 247.509 225.143C240.976 226.811 237.086 229.499 234.274 232.495C231.378 229.722 228.852 227.31 226.991 225.791C220.733 220.681 211.547 216.368 211.547 216.368C211.547 216.368 221.516 230.104 223.471 233.642C225.427 237.18 224.052 242.874 213.704 244.447C203.355 246.019 200.808 244.054 196.706 241.695C192.605 239.337 187.52 237.18 185.565 237.18C181.657 237.458 177.778 236.328 174.624 233.993C169.55 230.455 167.394 220.447 165.639 219.661C164.434 219.119 153.768 233.1 145.46 243.597L144.741 243.225C141.126 241.355 138.303 237.541 136.369 234.184C143.092 224.314 150.586 213.106 154.508 208.283Z" fill="#FF5E14" stroke="#222121" stroke-linecap="round" stroke-linejoin="round"/>
<path d="M189.529 199.369C189.529 199.369 193.672 209.388 185.374 213.18" stroke="#222121" stroke-linecap="round" stroke-linejoin="round"/>
<path d="M211.547 216.336L202.541 213.658" stroke="#222121" stroke-linecap="round" stroke-linejoin="round"/>
<path d="M211.664 233.812C211.664 233.812 205.987 238.848 192.7 233.153" stroke="#222121" stroke-linecap="round" stroke-linejoin="round"/>
<path d="M159.815 215.847C163.092 216.283 165.639 219.672 165.639 219.672C161.858 218.862 158.013 218.389 154.149 218.259" stroke="#222121" stroke-linecap="round" stroke-linejoin="round"/>
<path d="M211.251 217.164C211.251 217.164 205.152 217.164 199.264 216.941" stroke="#222121" stroke-linecap="round" stroke-linejoin="round"/>
<path d="M207.985 231.177C207.985 231.177 207.33 235.129 198.831 234.683" stroke="#222121" stroke-linecap="round" stroke-linejoin="round"/>
<path d="M185.374 196.108C185.374 196.108 186.738 203.173 185.766 206.902C184.793 210.631 181.273 214.955 178.725 210.439C176.178 205.924 174.825 200.878 174.825 198.466C174.825 196.055 183.62 191.592 185.374 196.108Z" fill="white" stroke="#222121" stroke-linecap="round" stroke-linejoin="round"/>
<path d="M165.639 187.269C165.639 187.269 160.174 186.089 155.481 180.002C150.787 173.914 156.844 173.139 158.8 167.253C160.755 161.367 153.874 163.322 163.831 153.113C173.789 142.903 190.015 146.441 197.658 149.777C205.3 153.113 205.057 164.31 210.543 165.096C216.029 165.883 218.365 160.581 225.004 160.581C231.642 160.581 238.682 167.646 235.944 173.532C233.207 179.418 227.932 176.878 227.541 175.89C227.15 174.902 230.279 176.092 230.479 173.139C230.68 170.185 223.45 171.768 221.294 175.699C219.549 178.886 222.752 183.412 222.647 186.759C222.425 193.473 214.243 197.765 208.989 198.689C201.896 199.932 193.271 199.497 186.844 195.959C178.947 191.603 182.615 182.573 176.802 180.214C170.988 177.856 168.007 181.394 168.007 181.394L165.639 187.269Z" fill="#222121" stroke="#222121" stroke-linecap="round" stroke-linejoin="round"/>
<path d="M225.353 164.225C226.359 163.786 227.467 163.633 228.554 163.785C229.641 163.937 230.666 164.387 231.515 165.086" stroke="white" stroke-linecap="round" stroke-linejoin="round"/>
<path d="M173.218 169.728C173.218 169.728 173.218 158.042 181.379 155.662C189.539 153.283 198.863 163.864 203.577 170.536C208.292 177.208 215.205 175.614 220.289 168.581C220.767 167.903 221.298 167.264 221.875 166.669" stroke="white" stroke-linecap="round" stroke-linejoin="round"/>
<path d="M219.465 191.646C215.237 194.376 212.065 195.162 205.86 193.207C199.655 191.253 200.416 181.096 194.983 175.635C189.55 170.175 179.825 172.119 179.825 172.119C179.825 172.119 190.702 166.254 199.254 172.501C207.805 178.748 207.034 189.298 214.803 191.253" stroke="white" stroke-linecap="round" stroke-linejoin="round"/>
<path d="M167.774 170.94C167.774 170.94 160.375 168.985 160.776 162.345" stroke="white" stroke-linecap="round" stroke-linejoin="round"/>
<path d="M228.661 246.221C228.661 246.221 208.577 248.771 198.429 255.782" stroke="white" stroke-linecap="round" stroke-linejoin="round"/>
<path d="M172.013 173.468C173.264 173.108 174.592 173.116 175.838 173.493C177.085 173.87 178.197 174.599 179.043 175.593C182.362 179.12 182.214 180.905 184.983 183.104C185.809 183.83 186.85 184.262 187.945 184.333C189.04 184.404 190.128 184.11 191.04 183.497C192.214 182.913 193.577 183.306 193.968 186.047C194.359 188.788 190.649 190.955 190.057 190.955C189.469 190.987 188.883 191.055 188.302 191.157C188.302 191.157 188.302 196.065 184.983 199.008C181.664 201.951 175.015 206.668 170.523 205.69C166.03 204.713 164.275 194.302 164.275 189C164.44 183.625 165.494 178.315 167.394 173.287C168.768 170.185 172.013 173.468 172.013 173.468Z" fill="white" stroke="#222121" stroke-linecap="round" stroke-linejoin="round"/>
<path d="M175.723 185.399C175.723 186.461 176.104 187.375 176.59 187.375C177.076 187.375 177.468 186.493 177.468 185.399C177.468 184.305 177.076 183.433 176.59 183.433C176.104 183.433 175.723 184.315 175.723 185.399Z" fill="#222121"/>
<path d="M168.757 184.74C168.757 185.802 169.148 186.716 169.624 186.716C170.1 186.716 170.502 185.834 170.502 184.74C170.502 183.646 170.11 182.775 169.624 182.775C169.138 182.775 168.757 183.656 168.757 184.74Z" fill="#222121"/>
<path d="M179.867 181.415C179.867 181.415 178.567 179.449 175.29 180.352" stroke="#222121" stroke-linecap="round" stroke-linejoin="round"/>
<path d="M171.59 180.352C171.59 180.352 169.413 177.941 167.447 180.352" stroke="#222121" stroke-linecap="round" stroke-linejoin="round"/>
<path d="M171.802 184.74C171.802 184.74 171.59 189.128 170.28 189.128C168.969 189.128 169.413 191.093 171.157 191.752" stroke="#222121" stroke-linecap="round" stroke-linejoin="round"/>
<path d="M172.901 196.14C172.901 196.14 176.823 197.893 178.345 193.94" stroke="#222121" stroke-linecap="round" stroke-linejoin="round"/>
<path d="M171.981 293.115C171.981 293.115 194.18 273.546 217.181 266.884C240.183 260.223 266.652 263.357 289.643 257.1C312.635 250.842 325.869 242.226 325.869 242.226L327.042 262.975L172.711 304.876L67.131 275.511L56.6132 253.976C56.6132 253.976 69.4671 260.627 92.4583 266.109C115.449 271.591 141.21 271.58 155.639 277.03C170.068 282.48 171.981 293.115 171.981 293.115Z" fill="white" stroke="#222121" stroke-linecap="round" stroke-linejoin="round"/>
<path d="M329.379 246.911C329.379 246.911 303.628 262.582 245.617 268.064C207.404 271.665 171.981 293.115 171.981 293.115C156.46 283.141 138.591 277.467 120.185 276.669C89.7945 275.5 55.1227 263.357 55.1227 263.357L61.7294 277.03L175.1 299.34L331.715 258.226L329.379 246.911Z" fill="white" stroke="#222121" stroke-linecap="round" stroke-linejoin="round"/>
<path d="M333.66 251.618C311.743 261.566 288.286 267.647 264.316 269.593C222.636 272.727 173.155 293.083 173.155 293.083C173.155 293.083 147.056 278.996 118.187 278.996C96.7456 278.812 75.412 275.917 54.6894 270.38C55.3336 272.544 55.4933 274.824 55.157 277.058C54.8208 279.292 53.9969 281.423 52.7444 283.298L173.546 309.168L334.442 262.157L333.66 251.618Z" fill="white" stroke="#222121" stroke-linecap="round" stroke-linejoin="round"/>
<path d="M332.877 260.914L178.609 299.776V305.258L165.364 305.651V299.34L49.2667 280.94C49.2667 280.94 44.2034 279.761 48.4845 285.636C52.7656 291.511 127.574 356.901 127.574 356.901L210.554 365.517L336.397 337.757L335.647 263.06C335.645 262.721 335.565 262.387 335.416 262.084C335.266 261.78 335.049 261.515 334.783 261.308C334.516 261.102 334.205 260.959 333.875 260.89C333.545 260.822 333.204 260.83 332.877 260.914Z" fill="#FF5E14"/>
<path opacity="0.3" d="M178.609 305.258V299.776L335.615 260.234L336.387 337.757L210.554 365.559L208.302 365.326L175.089 305.364L178.609 305.258Z" fill="#222121"/>
<path d="M332.877 260.914L178.609 299.776V305.258L165.364 305.651V299.34L49.2667 280.94C49.2667 280.94 44.2034 279.761 48.4845 285.636C52.7656 291.511 127.574 356.901 127.574 356.901L210.554 365.517L336.397 337.757L335.647 263.06C335.645 262.721 335.565 262.387 335.416 262.084C335.266 261.78 335.049 261.515 334.783 261.308C334.516 261.102 334.205 260.959 333.875 260.89C333.545 260.822 333.204 260.83 332.877 260.914Z" stroke="#222121" stroke-linecap="round" stroke-linejoin="round"/>
<path d="M178.609 305.258L213.281 365.559L206.653 365.942L165.364 305.651L178.609 305.258Z" fill="#FF5E14" stroke="#222121" stroke-linecap="round" stroke-linejoin="round"/>
<path d="M62.8922 283.405C62.8922 283.405 52.5436 285.349 54.7 292.286L48.4844 285.657C48.4844 285.657 45.6409 282.098 46.9411 281.407C48.2413 280.717 62.8922 283.405 62.8922 283.405Z" fill="#222121"/>
<path d="M318.575 264.855C318.575 264.855 333.216 268.924 335.488 279.92L335.615 263.06C335.615 263.06 335.171 260.521 332.856 260.935C330.541 261.349 318.575 264.855 318.575 264.855Z" fill="#222121"/>
<path d="M336.249 332.593L328.892 339.637L336.387 337.757L336.249 332.593Z" fill="#222121"/>
<path d="M132.87 357.4L122.891 352.471L128.145 357.05L132.87 357.4Z" fill="#222121"/>
<path d="M136.369 234.195L108.293 268.021L115.365 269.147L145.46 243.65C145.46 243.65 137.669 238.518 136.369 234.195Z" fill="white" stroke="#222121" stroke-linecap="round" stroke-linejoin="round"/>
<path d="M260.87 256.696C260.87 256.696 262.276 254.986 262.635 256.515C262.995 258.045 266.177 263.357 263.692 263.729C261.208 264.101 259.802 258.035 259.802 258.035L260.87 256.696Z" fill="white" stroke="#222121" stroke-linecap="round" stroke-linejoin="round"/>
<path d="M257.509 256.494C257.509 256.494 258.925 254.784 259.274 256.303C259.623 257.822 262.815 263.145 260.331 263.527C257.847 263.91 256.43 257.822 256.43 257.822L257.509 256.494Z" fill="white" stroke="#222121" stroke-linecap="round" stroke-linejoin="round"/>
<path d="M254.137 256.367C254.137 256.367 255.817 254.465 256.251 256.154C256.684 257.843 260.479 263.75 257.509 264.175C254.538 264.6 252.889 257.801 252.889 257.801L254.137 256.367Z" fill="white" stroke="#222121" stroke-linecap="round" stroke-linejoin="round"/>
<path d="M251.198 257.004L245.532 262.486H252.244L251.198 257.004Z" fill="white" stroke="#222121" stroke-linecap="round" stroke-linejoin="round"/>
<path d="M251.198 257.004C251.198 257.004 252.879 255.102 253.312 256.792C253.745 258.481 257.54 264.388 254.57 264.802C251.6 265.216 249.951 258.428 249.951 258.428L251.198 257.004Z" fill="white" stroke="#222121" stroke-linecap="round" stroke-linejoin="round"/>
<path d="M100.672 261.923C100.672 261.923 99.5407 260.011 98.9488 261.456C98.3568 262.9 94.3928 267.66 96.7712 268.425C99.1496 269.19 101.507 263.41 101.507 263.41L100.672 261.923Z" fill="white" stroke="#222121" stroke-linecap="round" stroke-linejoin="round"/>
<path d="M103.991 262.242C103.991 262.242 102.86 260.329 102.268 261.774C101.676 263.219 97.7014 267.979 100.09 268.744C102.479 269.508 104.826 263.729 104.826 263.729L103.991 262.242Z" fill="white" stroke="#222121" stroke-linecap="round" stroke-linejoin="round"/>
<path d="M107.331 262.656C107.331 262.656 105.968 260.531 105.291 262.114C104.615 263.697 100.006 268.956 102.796 269.838C105.587 270.72 108.346 264.313 108.346 264.313L107.331 262.656Z" fill="white" stroke="#222121" stroke-linecap="round" stroke-linejoin="round"/>
<path d="M110.132 263.75L114.879 270.061L108.24 268.999L110.132 263.75Z" fill="white" stroke="#222121" stroke-linecap="round" stroke-linejoin="round"/>
<path d="M110.133 263.75C110.133 263.75 108.779 261.626 108.092 263.209C107.405 264.791 102.807 270.04 105.598 270.921C108.388 271.803 111.147 265.408 111.147 265.408L110.133 263.75Z" fill="white" stroke="#222121" stroke-linecap="round" stroke-linejoin="round"/>
<path d="M302.709 320.493L295.944 319.43L302.709 318.368C303.304 318.277 303.856 317.997 304.282 317.569C304.708 317.141 304.986 316.587 305.077 315.988L306.134 309.178L307.191 315.988C307.28 316.585 307.557 317.138 307.981 317.566C308.405 317.994 308.954 318.275 309.548 318.368L316.324 319.43L309.548 320.493C308.956 320.59 308.41 320.873 307.987 321.3C307.564 321.727 307.285 322.277 307.191 322.872L306.134 329.682L305.077 322.872C304.982 322.276 304.702 321.724 304.276 321.297C303.851 320.87 303.303 320.588 302.709 320.493Z" fill="white"/>
<path d="M353.247 366.622L346.471 365.559L353.247 364.497C353.84 364.4 354.388 364.118 354.813 363.691C355.238 363.264 355.518 362.713 355.615 362.117L356.672 355.307L357.729 362.117C357.821 362.715 358.1 363.269 358.526 363.696C358.951 364.124 359.502 364.405 360.097 364.497L366.873 365.559L360.097 366.622C359.502 366.714 358.951 366.995 358.526 367.423C358.1 367.85 357.821 368.404 357.729 369.002L356.672 375.812L355.615 369.002C355.518 368.405 355.238 367.855 354.813 367.428C354.388 367.001 353.84 366.719 353.247 366.622Z" fill="#FF5E14"/>
<path opacity="0.5" d="M353.247 366.622L346.471 365.559L353.247 364.497C353.84 364.4 354.388 364.118 354.813 363.691C355.238 363.264 355.518 362.713 355.615 362.117L356.672 355.307L357.729 362.117C357.821 362.715 358.1 363.269 358.526 363.696C358.951 364.124 359.502 364.405 360.097 364.497L366.873 365.559L360.097 366.622C359.502 366.714 358.951 366.995 358.526 367.423C358.1 367.85 357.821 368.404 357.729 369.002L356.672 375.812L355.615 369.002C355.518 368.405 355.238 367.855 354.813 367.428C354.388 367.001 353.84 366.719 353.247 366.622Z" fill="white"/>
<path d="M185.176 386.905L178.4 385.843L185.176 384.781C185.769 384.689 186.319 384.41 186.744 383.984C187.17 383.558 187.45 383.008 187.544 382.411L188.601 375.602L189.658 382.411C189.752 383.008 190.031 383.558 190.457 383.984C190.883 384.41 191.432 384.689 192.026 384.781L198.801 385.843L192.026 386.905C191.432 386.997 190.883 387.276 190.457 387.702C190.031 388.128 189.752 388.678 189.658 389.274L188.601 396.084L187.544 389.274C187.45 388.678 187.17 388.128 186.744 387.702C186.319 387.276 185.769 386.997 185.176 386.905Z" fill="#FF5E14"/>
<path opacity="0.5" d="M185.176 386.905L178.4 385.843L185.176 384.781C185.769 384.689 186.319 384.41 186.744 383.984C187.17 383.558 187.45 383.008 187.544 382.411L188.601 375.602L189.658 382.411C189.752 383.008 190.031 383.558 190.457 383.984C190.883 384.41 191.432 384.689 192.026 384.781L198.801 385.843L192.026 386.905C191.432 386.997 190.883 387.276 190.457 387.702C190.031 388.128 189.752 388.678 189.658 389.274L188.601 396.084L187.544 389.274C187.45 388.678 187.17 388.128 186.744 387.702C186.319 387.276 185.769 386.997 185.176 386.905Z" fill="white"/>
<path d="M361.915 330.394L357.433 329.682L361.915 328.971C362.308 328.91 362.672 328.724 362.953 328.442C363.235 328.159 363.419 327.793 363.479 327.398L364.177 322.904L364.885 327.398C364.946 327.793 365.13 328.159 365.412 328.442C365.693 328.724 366.057 328.91 366.45 328.971L370.932 329.682L366.45 330.394C366.057 330.455 365.693 330.64 365.412 330.923C365.13 331.206 364.946 331.571 364.885 331.967L364.177 336.46L363.479 331.967C363.419 331.571 363.235 331.206 362.953 330.923C362.672 330.64 362.308 330.455 361.915 330.394Z" fill="#FF5E14"/>
<path opacity="0.5" d="M361.915 330.394L357.433 329.682L361.915 328.971C362.308 328.91 362.672 328.724 362.953 328.442C363.235 328.159 363.419 327.793 363.479 327.398L364.177 322.904L364.885 327.398C364.946 327.793 365.13 328.159 365.412 328.442C365.693 328.724 366.057 328.91 366.45 328.971L370.932 329.682L366.45 330.394C366.057 330.455 365.693 330.64 365.412 330.923C365.13 331.206 364.946 331.571 364.885 331.967L364.177 336.46L363.479 331.967C363.419 331.571 363.235 331.206 362.953 330.923C362.672 330.64 362.308 330.455 361.915 330.394Z" fill="white"/>
<path d="M71.1585 340.338L66.6766 339.637L71.1585 338.925C71.5511 338.863 71.914 338.677 72.195 338.395C72.4761 338.112 72.6609 337.747 72.723 337.353L73.4312 332.848L74.1289 337.353C74.191 337.747 74.3758 338.112 74.6569 338.395C74.9379 338.677 75.3008 338.863 75.6933 338.925L80.1753 339.637L75.6933 340.338C75.3008 340.401 74.9379 340.586 74.6569 340.869C74.3758 341.151 74.191 341.516 74.1289 341.911L73.4312 346.415L72.723 341.911C72.6609 341.516 72.4761 341.151 72.195 340.869C71.914 340.586 71.5511 340.401 71.1585 340.338Z" fill="#FF5E14"/>
<path opacity="0.5" d="M71.1585 340.338L66.6766 339.637L71.1585 338.925C71.5511 338.863 71.914 338.677 72.195 338.395C72.4761 338.112 72.6609 337.747 72.723 337.353L73.4312 332.848L74.1289 337.353C74.191 337.747 74.3758 338.112 74.6569 338.395C74.9379 338.677 75.3008 338.863 75.6933 338.925L80.1753 339.637L75.6933 340.338C75.3008 340.401 74.9379 340.586 74.6569 340.869C74.3758 341.151 74.191 341.516 74.1289 341.911L73.4312 346.415L72.723 341.911C72.6609 341.516 72.4761 341.151 72.195 340.869C71.914 340.586 71.5511 340.401 71.1585 340.338Z" fill="white"/>
<path d="M275.986 302.899L271.599 302.209L275.986 301.518C276.371 301.458 276.727 301.276 277.002 300.999C277.278 300.722 277.459 300.365 277.519 299.978L278.217 295.558L278.904 299.978C278.965 300.364 279.147 300.721 279.422 300.997C279.697 301.274 280.052 301.456 280.436 301.518L284.834 302.209L280.436 302.899C280.052 302.962 279.697 303.144 279.422 303.42C279.147 303.697 278.965 304.054 278.904 304.44L278.259 308.902L277.561 304.482C277.507 304.082 277.324 303.71 277.039 303.424C276.755 303.138 276.385 302.954 275.986 302.899Z" fill="white"/>
<path d="M130.65 346.521L126.253 345.82L130.65 345.13C131.034 345.068 131.389 344.885 131.665 344.609C131.94 344.332 132.121 343.975 132.183 343.589L132.87 339.17L133.557 343.589C133.619 343.975 133.8 344.332 134.075 344.609C134.351 344.885 134.706 345.068 135.09 345.13L139.487 345.82L135.09 346.521C134.705 346.582 134.349 346.764 134.074 347.041C133.798 347.317 133.617 347.675 133.557 348.062L132.87 352.471L132.183 348.062C132.123 347.675 131.942 347.317 131.666 347.041C131.391 346.764 131.035 346.582 130.65 346.521Z" fill="white"/>
<path d="M394.924 45.0938C394.924 45.0938 400.146 40.4936 405.547 38.9213C410.949 37.3489 417.175 37.3171 422.555 35.8403C427.936 34.3636 431.149 33.1206 431.149 33.1206L431.424 38.0076L395.146 47.856L370.326 40.9504L367.852 35.8828C370.557 37.1481 373.393 38.1066 376.309 38.7407C381.71 40.0262 387.757 40.0262 391.108 41.3223C394.459 42.6184 394.924 45.0938 394.924 45.0938Z" fill="white" stroke="#222121" stroke-linecap="round" stroke-linejoin="round"/>
<path d="M431.932 34.2255C424.84 36.4053 417.571 37.9518 410.209 38.8469C404.672 39.602 399.414 41.7507 394.924 45.0937C391.271 42.7474 387.067 41.4133 382.736 41.2266C377.527 40.8299 372.388 39.777 367.44 38.0926L368.994 41.2797L395.653 46.528L432.481 36.8602L431.932 34.2255Z" fill="white" stroke="#222121" stroke-linecap="round" stroke-linejoin="round"/>
<path d="M432.935 35.3303C427.3 37.5006 421.396 38.884 415.388 39.4418C405.578 40.1855 395.198 45.0937 395.198 45.0937C391.183 43.0585 386.775 41.9274 382.28 41.779C377.236 41.7351 372.218 41.0533 367.344 39.7499C367.496 40.2587 367.534 40.795 367.455 41.3203C367.377 41.8456 367.183 42.3469 366.889 42.7883L395.293 48.8652L433.125 37.8163L432.935 35.3303Z" fill="white" stroke="#222121" stroke-linecap="round" stroke-linejoin="round"/>
<path d="M433.401 37.3595L396.478 46.6554V47.9303L393.37 48.0153V46.5492L366.066 42.2146C366.066 42.2146 364.871 41.9384 365.886 43.277C366.901 44.6156 384.48 60.0416 384.48 60.0416L403.993 62.0601L433.591 55.5264L433.401 37.3595Z" fill="#FF5E14"/>
<path opacity="0.3" d="M396.478 47.9516V46.6554L433.401 37.3595L433.581 55.5902L403.993 62.1239L403.465 62.0708L395.653 47.9728L396.478 47.9516Z" fill="#222121"/>
<path d="M433.401 37.3595L396.478 46.6554V47.9303L393.37 48.0153V46.5492L366.066 42.2146C366.066 42.2146 364.871 41.9384 365.886 43.277C366.901 44.6156 384.48 60.0416 384.48 60.0416L403.993 62.0601L433.591 55.5264L433.401 37.3595Z" stroke="#222121" stroke-linecap="round" stroke-linejoin="round"/>
<path d="M396.478 47.9517L404.638 62.124L403.074 62.2196L393.37 48.0367L396.478 47.9517Z" fill="#FF5E14" stroke="#222121" stroke-linecap="round" stroke-linejoin="round"/>
<path d="M397.788 134.356C397.788 134.356 399.564 138.096 401.932 139.806C404.3 141.517 407.323 142.324 409.712 143.971C411.01 144.853 412.252 145.815 413.433 146.85L414.384 143.599L398.38 132.518L385.114 134.133L383.063 137.235C384.546 136.731 386.089 136.43 387.651 136.343C390.495 136.141 393.444 136.885 395.315 136.428C395.854 136.288 396.356 136.029 396.783 135.671C397.211 135.313 397.554 134.864 397.788 134.356Z" fill="white" stroke="#222121" stroke-linecap="round" stroke-linejoin="round"/>
<path d="M414.014 146.202C410.974 143.904 407.679 141.968 404.194 140.433C401.5 139.1 399.268 136.982 397.788 134.356C395.762 135.418 393.447 135.79 391.192 135.418C388.537 135.051 385.84 135.13 383.211 135.652L384.512 133.666L398.38 133.453L414.723 144.47L414.014 146.202Z" fill="white" stroke="#222121" stroke-linecap="round" stroke-linejoin="round"/>
<path d="M414.691 145.586C412.377 143.489 409.711 141.823 406.816 140.667C402.165 138.967 397.915 134.388 397.915 134.388C395.737 135.243 393.364 135.468 391.065 135.036C388.569 134.449 385.992 134.294 383.444 134.579C383.764 133.92 383.864 133.175 383.729 132.454L398.592 131.859L415.198 143.939L414.691 145.586Z" fill="white" stroke="#222121" stroke-linecap="round" stroke-linejoin="round"/>
<path d="M415.293 144.279L398.845 133.485L399.067 132.624L397.556 132.178L397.313 133.166L383.275 132.741C383.275 132.741 382.651 132.741 383.37 131.976C384.089 131.211 395.209 122.957 395.209 122.957L405.072 124.019L418.412 132.04L415.293 144.279Z" fill="#FF5E14"/>
<path opacity="0.3" d="M399.025 132.624L398.803 133.485L415.251 144.279L418.401 132.008L405.061 123.987L404.797 123.955L398.623 132.508L399.025 132.624Z" fill="#222121"/>
<path d="M415.293 144.279L398.845 133.485L399.067 132.624L397.556 132.178L397.313 133.166L383.275 132.741C383.275 132.741 382.651 132.741 383.37 131.976C384.089 131.211 395.209 122.957 395.209 122.957L405.072 124.019L418.412 132.04L415.293 144.279Z" stroke="#222121" stroke-linecap="round" stroke-linejoin="round"/>
<path d="M399.025 132.624L405.368 124.061L404.628 123.807L397.514 132.178L399.025 132.624Z" fill="#FF5E14" stroke="#222121" stroke-linecap="round" stroke-linejoin="round"/>
<path d="M151.851 20L122 50.3845L185.741 68.4345L189.959 37.9757L151.851 20Z" fill="#FF5E14" stroke="#222121" stroke-linecap="round" stroke-linejoin="round"/>
<path d="M125.435 54.7722L191.365 74.2458L186.048 39.2294L152.782 24.3134L125.435 54.7722Z" fill="white" stroke="#222121" stroke-linecap="round" stroke-linejoin="round"/>
<path d="M151.217 26.2043L126.693 58.0762L188.553 76.1263L181.365 37.8163L151.217 26.2043Z" fill="white"/>
<path opacity="0.17" d="M151.217 26.2043L126.693 58.0762L188.553 76.1263L181.365 37.8163L151.217 26.2043Z" fill="#222121"/>
<path d="M151.217 26.2043L126.693 58.0762L188.553 76.1263L181.365 37.8163L151.217 26.2043Z" stroke="#222121" stroke-linecap="round" stroke-linejoin="round"/>
<path d="M151.217 26.2043L162.464 65.4492L206.364 78.8034L189.494 42.6821L151.217 26.2043Z" fill="white" stroke="#222121" stroke-linecap="round" stroke-linejoin="round"/>
<path d="M165.583 62.3152L207.918 76.6044L209.176 70.6337L169.959 56.5039L165.583 62.3152Z" fill="white" stroke="#222121" stroke-linecap="round" stroke-linejoin="round"/>
<path d="M152.306 20.8606L124.188 50.2252L125.435 54.7722L151.217 26.2044L165.583 62.3152L169.959 56.5039L152.306 20.8606Z" fill="white" stroke="#222121" stroke-linecap="round" stroke-linejoin="round"/>
<path d="M151.851 20L169.8 57.6087L211.206 71.7386L189.959 37.9757L151.851 20Z" fill="#FF5E14"/>
<path opacity="0.3" d="M151.851 20L169.8 57.6087L211.206 71.7386L189.959 37.9757L151.851 20Z" fill="#222121"/>
<path d="M151.851 20L169.8 57.6087L211.206 71.7386L189.959 37.9757L151.851 20Z" stroke="#222121" stroke-linecap="round" stroke-linejoin="round"/>
<path d="M191.671 41.4391L158.363 26.1619" stroke="#222121" stroke-linecap="round" stroke-linejoin="round"/>
<path d="M290.538 129.182L259.968 91.3823L323.033 88.4076L328.054 120.163L290.538 129.182Z" fill="#FF5E14" stroke="#222121" stroke-linecap="round" stroke-linejoin="round"/>
<path d="M263.277 87.7701L328.487 83.8923L324.132 117.963L291.352 125.06L263.277 87.7701Z" fill="white" stroke="#222121" stroke-linecap="round" stroke-linejoin="round"/>
<path d="M289.746 122.776L264.44 84.7317L325.633 81.3108L319.492 118.261L289.746 122.776Z" fill="white"/>
<path opacity="0.17" d="M289.746 122.776L264.44 84.7317L325.633 81.3108L319.492 118.261L289.746 122.776Z" fill="#222121"/>
<path d="M289.746 122.776L264.44 84.7317L325.633 81.3108L319.492 118.261L289.746 122.776Z" stroke="#222121" stroke-linecap="round" stroke-linejoin="round"/>
<path d="M289.746 122.776L299.904 85.8471L343.318 82.8831L327.462 115.297L289.746 122.776Z" fill="white" stroke="#222121" stroke-linecap="round" stroke-linejoin="round"/>
<path d="M303.107 89.7674L344.935 85.4753L346.341 91.7966L307.621 96.673L303.107 89.7674Z" fill="white" stroke="#222121" stroke-linecap="round" stroke-linejoin="round"/>
<path d="M290.982 128.428L262.156 92.0622L263.277 87.7701L289.746 122.776L303.107 89.7674L307.621 96.673L290.982 128.428Z" fill="white" stroke="#222121" stroke-linecap="round" stroke-linejoin="round"/>
<path d="M290.538 129.182L307.441 95.5256L348.339 91.1698L328.054 120.163L290.538 129.182Z" fill="#FF5E14"/>
<path opacity="0.3" d="M290.538 129.182L307.441 95.5256L348.339 91.1698L328.054 120.163L290.538 129.182Z" fill="#222121"/>
<path d="M290.538 129.182L307.441 95.5256L348.339 91.1698L328.054 120.162L290.538 129.182Z" stroke="#222121" stroke-linecap="round" stroke-linejoin="round"/>
<path d="M331.172 115.977L297.864 123.02" stroke="#222121" stroke-linecap="round" stroke-linejoin="round"/>
</svg>
